<svg width="80" height="80" viewBox="0 0 80 80" fill="none" xmlns="http://www.w3.org/2000/svg">
  <rect width="80" height="80" rx="40" fill="#E9DCBB"/>
  <circle cx="40" cy="35" r="15" fill="#D69A72"/>
  <path d="M21 25C24 13 37 9 50 13C59 16 64 25 62 36C57 28 50 25 39 26C32 26 27 25 21 25Z" fill="#C15F3D"/>
  <path d="M20 80C22 62 30 52 40 52C50 52 58 62 60 80H20Z" fill="#DDECF7"/>
  <path d="M31 37C32 40 35 43 40 43C45 43 48 40 49 37" stroke="#7D4B39" stroke-width="2" stroke-linecap="round"/>
  <circle cx="34" cy="32" r="2" fill="#4A2D28"/>
  <circle cx="46" cy="32" r="2" fill="#4A2D28"/>
</svg>
