<svg xmlns="http://www.w3.org/2000/svg" width="18" height="18" viewBox="0 0 18 18" fill="none">
  <path d="M13.04 14.3545C13.1997 14.5003 13.3743 14.6297 13.5625 14.7383C13.9036 14.9352 14.2804 15.0638 14.6709 15.1152C14.8562 15.1396 15.0428 15.1441 15.2285 15.1338C14.4215 15.9079 13.4785 16.5267 12.4443 16.9551C11.3524 17.4074 10.1819 17.6406 9 17.6406C7.8181 17.6406 6.64759 17.4074 5.55566 16.9551C4.5213 16.5266 3.57766 15.9081 2.77051 15.1338C2.95653 15.1442 3.14349 15.1397 3.3291 15.1152C3.71968 15.0638 4.09633 14.9352 4.4375 14.7383C4.62547 14.6298 4.79945 14.5001 4.95898 14.3545C5.38312 14.6541 5.83926 14.9077 6.32129 15.1074C7.17057 15.4592 8.08075 15.6406 9 15.6406C9.91925 15.6406 10.8294 15.4592 11.6787 15.1074C12.1605 14.9078 12.6161 14.6539 13.04 14.3545ZM6.49023 0C6.38842 0.155725 6.30006 0.320442 6.22852 0.493164C6.07784 0.857001 6.00004 1.24682 6 1.64062C6 1.85756 6.02497 2.0733 6.07129 2.28418C5.32046 2.62993 4.63532 3.10495 4.0498 3.69043C3.39988 4.34036 2.88498 5.11276 2.5332 5.96191C2.18146 6.8111 2.00004 7.72148 2 8.64062C2 8.85545 2.0106 9.07003 2.03027 9.2832C1.82462 9.34852 1.62526 9.43359 1.4375 9.54199C1.09632 9.73897 0.797448 10.0019 0.557617 10.3145C0.443661 10.463 0.344756 10.6218 0.260742 10.7881C0.0883763 10.087 0 9.36585 0 8.64062C4.03669e-05 7.45883 0.233295 6.28813 0.685547 5.19629C1.13783 4.10459 1.80016 3.11195 2.63574 2.27637C3.47136 1.44079 4.46393 0.778434 5.55566 0.326172C5.86133 0.199564 6.17373 0.0919668 6.49023 0ZM11.5088 0C11.8256 0.0920208 12.1384 0.199445 12.4443 0.326172C13.5361 0.778434 14.5286 1.44079 15.3643 2.27637C16.1998 3.11195 16.8622 4.10459 17.3145 5.19629C17.7667 6.28813 18 7.45883 18 8.64062C18 9.36593 17.9107 10.0869 17.7383 10.7881C17.6543 10.6219 17.5562 10.4629 17.4424 10.3145C17.2026 10.0019 16.9036 9.73897 16.5625 9.54199C16.3745 9.43345 16.1747 9.34854 15.9688 9.2832C15.9884 9.07 16 8.85548 16 8.64062C16 7.72147 15.8185 6.8111 15.4668 5.96191C15.115 5.11276 14.6001 4.34036 13.9502 3.69043C13.3645 3.10474 12.6789 2.62996 11.9277 2.28418C11.9741 2.07324 12 1.85762 12 1.64062C12 1.24684 11.9222 0.856987 11.7715 0.493164C11.6999 0.320301 11.6107 0.155837 11.5088 0Z" fill="#33363F"/>
</svg>
