<svg width="24" height="24" viewBox="0 0 24 24" fill="none" xmlns="http://www.w3.org/2000/svg">
  <path d="M9.4 5.4C9 3.8 10.1 2.4 12 2.1C11.8 3.7 10.9 4.9 9.4 5.4Z" fill="#4F9A36"/>
  <path d="M12.8 5.3C13.1 3.7 14.5 2.8 16.3 3.2C15.6 4.7 14.4 5.5 12.8 5.3Z" fill="#68B84E"/>
  <path d="M6.1 11C6.1 8.3 8.2 6.4 10.8 6.8C11.4 6.9 11.8 7.3 12.2 7.7C12.6 7.3 13 6.9 13.6 6.8C16.2 6.4 18.3 8.3 18.3 11C18.3 15.1 15 19.4 12.2 20.9C9.4 19.4 6.1 15.1 6.1 11Z" fill="#C71F62"/>
  <circle cx="9.3" cy="10.4" r="1.8" fill="#F05691"/>
  <circle cx="14.9" cy="10.4" r="1.8" fill="#F05691"/>
  <circle cx="12.1" cy="12.4" r="1.9" fill="#EF3D82"/>
  <circle cx="9.7" cy="14.9" r="1.8" fill="#E72C73"/>
  <circle cx="14.5" cy="14.9" r="1.8" fill="#E72C73"/>
  <circle cx="12.1" cy="17.1" r="1.7" fill="#D51C68"/>
  <path d="M6.1 11C6.1 8.3 8.2 6.4 10.8 6.8C11.4 6.9 11.8 7.3 12.2 7.7C12.6 7.3 13 6.9 13.6 6.8C16.2 6.4 18.3 8.3 18.3 11C18.3 15.1 15 19.4 12.2 20.9C9.4 19.4 6.1 15.1 6.1 11Z" stroke="#1D1D1D" stroke-width="1.2" stroke-linejoin="round"/>
</svg>
