<svg xmlns="http://www.w3.org/2000/svg" width="18" height="18" viewBox="0 0 18 18" fill="none">
  <path d="M2.25 3.25C2.25 2.55964 2.80964 2 3.5 2H14.5C15.1904 2 15.75 2.55964 15.75 3.25V10.25C15.75 10.9404 15.1904 11.5 14.5 11.5H3.5C2.80964 11.5 2.25 10.9404 2.25 10.25V3.25Z" fill="#2970FF"/>
  <path d="M7 13.25H11C11.4142 13.25 11.75 13.5858 11.75 14C11.75 14.4142 11.4142 14.75 11 14.75H7C6.58579 14.75 6.25 14.4142 6.25 14C6.25 13.5858 6.58579 13.25 7 13.25Z" fill="#2970FF"/>
  <path d="M8.25 11.25H9.75V13.75H8.25V11.25Z" fill="#2970FF"/>
  <path d="M5.25 5.5C5.25 5.08579 5.58579 4.75 6 4.75H12C12.4142 4.75 12.75 5.08579 12.75 5.5V8.75C12.75 9.16421 12.4142 9.5 12 9.5H6C5.58579 9.5 5.25 9.16421 5.25 8.75V5.5Z" fill="white" fill-opacity="0.18"/>
  <path d="M5.75 7.125L7.5 8.75L11.5 5.5" stroke="white" stroke-width="1.4" stroke-linecap="round" stroke-linejoin="round"/>
</svg>
